<?xml version="1.0" standalone="no"?>
<!DOCTYPE svg PUBLIC "-//W3C//DTD SVG 20010904//EN"
 "http://www.w3.org/TR/2001/REC-SVG-20010904/DTD/svg10.dtd">
<svg version="1.0" xmlns="http://www.w3.org/2000/svg"
 width="512.000000pt" height="512.000000pt" viewBox="0 0 512.000000 512.000000"
 preserveAspectRatio="xMidYMid meet">
<metadata>
Created by potrace 1.14, written by Peter Selinger 2001-2017
</metadata>
<g transform="translate(0.000000,512.000000) scale(0.100000,-0.100000)"
fill="#000000" stroke="none">
<path d="M2410 5101 c-83 -23 -140 -48 -234 -105 -42 -25 -78 -46 -81 -46 -3
0 -24 -12 -48 -27 -23 -15 -143 -85 -267 -156 -408 -235 -544 -314 -598 -345
-29 -18 -55 -32 -58 -32 -3 0 -17 -8 -32 -19 -25 -17 -380 -222 -482 -279
-140 -77 -243 -187 -298 -319 -54 -128 -53 -104 -53 -1217 -1 -1032 0 -1068
33 -1161 49 -137 142 -257 258 -330 39 -25 595 -348 705 -410 39 -22 181 -103
650 -375 470 -272 473 -273 655 -274 94 -1 128 3 185 22 56 19 230 110 360
189 11 7 27 16 35 20 8 4 49 27 90 51 41 25 179 104 305 177 569 328 692 399
720 416 17 11 36 22 44 25 7 4 52 30 100 57 47 28 106 62 131 76 56 31 59 34
132 101 79 73 141 173 173 285 l26 90 0 1035 c0 625 -4 1055 -10 1085 -31 159
-132 320 -255 404 -36 25 -278 167 -406 239 -25 14 -126 72 -225 130 -215 125
-143 83 -683 396 -244 141 -476 268 -515 282 -95 35 -258 41 -357 15z"/>
</g>
</svg>
